<svg xmlns="http://www.w3.org/2000/svg" version="1.1" xmlns:xlink="http://www.w3.org/1999/xlink" xmlns:svgjs="http://svgjs.dev/svgjs" width="128" height="128" viewBox="0 0 128 128"><g transform="matrix(0.8046875,0,0,0.8046875,12.367841911764721,5.47196320564516)"><svg viewBox="0 0 136 155" data-background-color="#f6f6f6" preserveAspectRatio="xMidYMid meet" height="145" width="128" xmlns="http://www.w3.org/2000/svg" xmlns:xlink="http://www.w3.org/1999/xlink"><g id="tight-bounds" transform="matrix(1,0,0,1,0.17449999999998056,0.25)"><svg viewBox="0 0 135.651 154.5" height="154.5" width="135.651"><g><svg viewBox="0 0 135.651 154.5" height="154.5" width="135.651"><g><svg viewBox="0 0 135.651 154.5" height="154.5" width="135.651"><g id="textblocktransform"><svg viewBox="0 0 135.651 154.5" height="154.5" width="135.651" id="textblock"><g><svg viewBox="0 0 135.651 154.5" height="154.5" width="135.651"><g transform="matrix(1,0,0,1,0,0)"><svg width="135.651" viewBox="1.85 -25 21.95 25" height="154.5" data-palette-color="#ffa458"><path d="M23.1 0L1.85 0 1.85-3.1 14.15-19.15Q15-20.25 15.75-21.13 16.5-22 16.8-22.25L16.8-22.25 9.15-22.15Q7.8-22.15 6.98-21.23 6.15-20.3 5.7-18.85 5.25-17.4 4.95-15.6L4.95-15.6 2.4-15.6 3.05-25 23.1-25 23.1-22.35 10.95-6.1Q10.25-5.2 9.63-4.5 9-3.8 8.2-3.1L8.2-3.1 16.15-2.95Q17.9-2.9 18.93-3.78 19.95-4.65 20.48-6.2 21-7.75 21.25-9.55L21.25-9.55 23.8-9.55 23.1 0Z" opacity="1" transform="matrix(1,0,0,1,0,0)" fill="#ffa458" class="wordmark-text-0" data-fill-palette-color="primary" id="text-0"></path></svg></g></svg></g></svg></g></svg></g></svg></g><defs></defs></svg><rect width="135.651" height="154.5" fill="none" stroke="none" visibility="hidden"></rect></g></svg></g></svg>