<svg xmlns="http://www.w3.org/2000/svg" version="1.1" xmlns:xlink="http://www.w3.org/1999/xlink" xmlns:svgjs="http://svgjs.dev/svgjs" width="1000" height="368" viewBox="0 0 1000 368"><g transform="matrix(1,0,0,1,-0.6060471922768897,0.6161339421612979)"><svg viewBox="0 0 396 146" data-background-color="#f6f6f6" preserveAspectRatio="xMidYMid meet" height="368" width="1000" xmlns="http://www.w3.org/2000/svg" xmlns:xlink="http://www.w3.org/1999/xlink"><g id="tight-bounds" transform="matrix(1,0,0,1,0.23999475730647646,-0.2444444444444258)"><svg viewBox="0 0 395.52 146.48888888888885" height="146.48888888888885" width="395.52"><g><svg viewBox="0 0 395.52 146.48888888888885" height="146.48888888888885" width="395.52"><g><svg viewBox="0 0 395.52 146.48888888888885" height="146.48888888888885" width="395.52"><g id="textblocktransform"><svg viewBox="0 0 395.52 146.48888888888885" height="146.48888888888885" width="395.52" id="textblock"><g><svg viewBox="0 0 395.52 146.48888888888885" height="146.48888888888885" width="395.52"><g transform="matrix(1,0,0,1,0,0)"><svg width="395.52" viewBox="1.850000023841858 -37.75 136.33999633789062 50.5" height="146.48888888888885" data-palette-color="#ffa458"><path d="M23.1 0L1.85 0 1.85-3.1 14.15-19.15Q15-20.25 15.75-21.13 16.5-22 16.8-22.25L16.8-22.25 9.15-22.15Q7.8-22.15 6.98-21.23 6.15-20.3 5.7-18.85 5.25-17.4 4.95-15.6L4.95-15.6 2.4-15.6 3.05-25 23.1-25 23.1-22.35 10.95-6.1Q10.25-5.2 9.63-4.5 9-3.8 8.2-3.1L8.2-3.1 16.15-2.95Q17.9-2.9 18.93-3.78 19.95-4.65 20.48-6.2 21-7.75 21.25-9.55L21.25-9.55 23.8-9.55 23.1 0ZM27.75 0L27.75-2.65Q29.2-2.65 29.8-3.28 30.4-3.9 30.55-5.05 30.7-6.2 30.7-7.65L30.7-7.65 30.7-17Q30.7-17.85 30.75-18.88 30.8-19.9 30.9-21L30.9-21Q30.05-20.95 29.05-20.9 28.05-20.85 27.4-20.8L27.4-20.8 27.4-24.05Q29.65-24.05 31.12-24.28 32.6-24.5 33.42-24.85 34.25-25.2 34.6-25.5L34.6-25.5 36.85-25.5 36.85-7.15Q36.85-6.35 36.82-5.23 36.8-4.1 36.65-3.05L36.65-3.05Q37.45-3.15 38.37-3.18 39.3-3.2 39.9-3.2L39.9-3.2 39.9 0 27.75 0ZM33.5-29.8L33.5-29.8Q32.05-29.8 31.05-30.88 30.05-31.95 30.05-33.5L30.05-33.5Q30.05-35.05 31.07-36.15 32.1-37.25 33.5-37.25L33.5-37.25Q34.95-37.25 35.92-36.15 36.9-35.05 36.9-33.5L36.9-33.5Q36.9-31.95 35.95-30.88 35-29.8 33.5-29.8ZM55 12.75L42.85 12.75 42.85 10.1Q44.3 10.1 44.92 9.47 45.55 8.85 45.7 7.7 45.85 6.55 45.85 5.1L45.85 5.1 45.9-17.05Q45.9-17.95 45.92-18.95 45.95-19.95 46.1-21L46.1-21Q45.25-20.95 44.22-20.9 43.2-20.85 42.55-20.8L42.55-20.8 42.55-24.05Q44.85-24.05 46.27-24.28 47.7-24.5 48.47-24.85 49.25-25.2 49.6-25.5L49.6-25.5 51.75-25.5Q51.85-25 51.9-24.3 51.95-23.6 52-23L52-23Q53.65-24.45 55.5-25.13 57.35-25.8 59.05-25.8L59.05-25.8Q62.05-25.8 64.4-24.28 66.75-22.75 68.09-19.93 69.45-17.1 69.45-13.25L69.45-13.25Q69.45-9.15 67.82-5.98 66.2-2.8 63.4-1 60.6 0.8 56.95 0.8L56.95 0.8Q55.45 0.8 54.25 0.48 53.05 0.15 52-0.35L52-0.35 52 5.6Q52 6.4 51.97 7.53 51.95 8.65 51.8 9.7L51.8 9.7Q52.6 9.6 53.5 9.58 54.4 9.55 55 9.55L55 9.55 55 12.75ZM56.4-2.35L56.4-2.35Q58.7-2.4 60.12-3.78 61.55-5.15 62.2-7.45 62.85-9.75 62.85-12.45L62.85-12.45Q62.85-14.9 62.22-17.1 61.6-19.3 60.25-20.65 58.9-22 56.65-22L56.65-22Q55.25-21.95 54.02-21.3 52.8-20.65 52-19.6L52-19.6Q52-18.5 52-17.35 52-16.2 52-14.9 52-13.6 52-11.98 52-10.35 52-8.3 52-6.25 52-3.6L52-3.6Q52.8-3.05 53.95-2.7 55.1-2.35 56.4-2.35ZM83.74 0.8L83.74 0.8Q80.84 0.8 79.02-0.3 77.19-1.4 76.34-3.83 75.49-6.25 75.49-10.2L75.49-10.2 75.49-17Q75.49-17.85 75.54-18.9 75.59-19.95 75.64-21L75.64-21Q74.84-20.95 73.84-20.93 72.84-20.9 72.19-20.85L72.19-20.85 72.19-24.05 73.04-24.05Q75.79-24.05 77.32-24.53 78.84-25 79.39-25.5L79.39-25.5 81.69-25.5 81.69-10.2Q81.69-6.6 82.67-4.85 83.64-3.1 85.84-3.1L85.84-3.1Q87.34-3.15 88.82-4 90.29-4.85 91.19-6L91.19-6 91.19-16.8Q91.19-17.8 91.24-18.88 91.29-19.95 91.39-21L91.39-21Q90.59-20.95 89.57-20.93 88.54-20.9 87.89-20.85L87.89-20.85 87.89-24.05 89.19-24.05Q91.49-24.05 93.02-24.55 94.54-25.05 95.04-25.5L95.04-25.5 97.34-25.5 97.34-7.55Q97.34-6.85 97.29-5.5 97.24-4.15 97.14-3.05L97.14-3.05Q97.99-3.15 98.94-3.18 99.89-3.2 100.49-3.25L100.49-3.25 100.49 0 91.79 0Q91.69-0.7 91.62-1.4 91.54-2.1 91.49-2.75L91.49-2.75Q89.94-1.35 88.02-0.28 86.09 0.8 83.74 0.8ZM103.89 0L103.89-2.65Q105.34-2.65 105.94-3.28 106.54-3.9 106.69-5.05 106.84-6.2 106.84-7.65L106.84-7.65 106.84-17.05Q106.84-17.95 106.89-18.95 106.94-19.95 107.04-21L107.04-21Q106.19-20.95 105.19-20.93 104.19-20.9 103.54-20.85L103.54-20.85 103.54-24.05 105.39-24.05Q107.39-24.05 108.74-24.53 110.09-25 110.64-25.5L110.64-25.5 112.74-25.5Q112.84-24.9 112.89-23.6 112.94-22.3 112.94-21L112.94-21Q114.09-22.5 115.34-23.58 116.59-24.65 117.92-25.23 119.24-25.8 120.64-25.8L120.64-25.8Q122.24-25.8 123.47-24.9 124.69-24 124.69-22L124.69-22Q124.69-21.35 124.37-20.6 124.04-19.85 123.37-19.35 122.69-18.85 121.54-18.85L121.54-18.85Q120.49-18.85 119.57-19.53 118.64-20.2 118.59-21.7L118.59-21.7Q117.54-21.75 116.42-20.95 115.29-20.15 114.39-19 113.49-17.85 112.99-16.65L112.99-16.65 113.04-7.15Q113.04-6.35 112.99-5.23 112.94-4.1 112.84-3.05L112.84-3.05Q113.64-3.15 114.54-3.18 115.44-3.2 116.04-3.2L116.04-3.2 116.04 0 103.89 0ZM126.04 0L126.04-2.65Q127.49-2.65 128.11-3.28 128.74-3.9 128.86-5.05 128.99-6.2 128.99-7.65L128.99-7.65 128.99-29.25Q128.99-30.1 129.04-31.13 129.09-32.15 129.19-33.25L129.19-33.25Q128.34-33.2 127.34-33.15 126.34-33.1 125.64-33.05L125.64-33.05 125.64-36.3Q127.94-36.3 129.41-36.52 130.89-36.75 131.71-37.1 132.54-37.45 132.89-37.75L132.89-37.75 135.14-37.75 135.19-7.15Q135.19-6.35 135.14-5.23 135.09-4.1 134.94-3.05L134.94-3.05Q135.79-3.15 136.69-3.18 137.59-3.2 138.19-3.2L138.19-3.2 138.19 0 126.04 0Z" opacity="1" transform="matrix(1,0,0,1,0,0)" fill="#ffa458" class="wordmark-text-0" data-fill-palette-color="primary" id="text-0"></path></svg></g></svg></g></svg></g></svg></g></svg></g><defs></defs></svg><rect width="395.52" height="146.48888888888885" fill="none" stroke="none" visibility="hidden"></rect></g></svg></g></svg>