<svg xmlns="http://www.w3.org/2000/svg" version="1.1" xmlns:xlink="http://www.w3.org/1999/xlink" xmlns:svgjs="http://svgjs.dev/svgjs" width="2000" height="656" viewBox="0 0 2000 656"><g transform="matrix(1,0,0,1,-1.2120865241982983,-0.19072345865220086)"><svg viewBox="0 0 396 130" data-background-color="#f9e17e" preserveAspectRatio="xMidYMid meet" height="656" width="2000" xmlns="http://www.w3.org/2000/svg" xmlns:xlink="http://www.w3.org/1999/xlink"><g id="tight-bounds" transform="matrix(1,0,0,1,0.23999313179126602,0.037795807354854105)"><svg viewBox="0 0 395.52 129.9244083852903" height="129.9244083852903" width="395.52"><g><svg viewBox="0 0 650.9124155780909 213.818291122127" height="129.9244083852903" width="395.52"><g transform="matrix(1,0,0,1,255.3924155780908,62.88293741626711)"><svg viewBox="0 0 395.52000000000004 88.05241628959277" height="88.05241628959277" width="395.52000000000004"><g id="textblocktransform"><svg viewBox="0 0 395.52000000000004 88.05241628959277" height="88.05241628959277" width="395.52000000000004" id="textblock"><g><svg viewBox="0 0 395.52000000000004 88.05241628959277" height="88.05241628959277" width="395.52000000000004"><g transform="matrix(1,0,0,1,0,0)"><svg width="395.52000000000004" viewBox="2.0999999046325684 -35.54999923706055 161.84999084472656 36.040000915527344" height="88.05241628959277" data-palette-color="#454545"><g class="wordmark-text-0" data-fill-palette-color="primary" id="text-0"><path d="M27.2-32.1L7.64-3.83 27.98-3.83 27.98 0 2.1 0 2.1-3.52 21.58-31.69 2.42-31.69 2.42-35.55 27.2-35.55 27.2-32.1ZM39.08-35.55L39.08 0 34.4 0 34.4-35.55 39.08-35.55ZM60.71-13.92L52.34-13.92 52.34 0 47.65 0 47.65-35.55 60.76-35.55Q66.6-35.55 69.9-32.57 73.21-29.59 73.21-24.68L73.21-24.68Q73.21-19.51 69.98-16.71 66.74-13.92 60.71-13.92L60.71-13.92ZM52.34-31.69L52.34-17.75 60.76-17.75Q64.52-17.75 66.52-19.52 68.53-21.29 68.53-24.63L68.53-24.63Q68.53-27.81 66.52-29.71 64.52-31.62 61.03-31.69L61.03-31.69 52.34-31.69ZM99.5-35.55L104.22-35.55 104.22-11.38Q104.19-6.35 101.05-3.15 97.92 0.05 92.55 0.44L92.55 0.44 91.3 0.49Q85.47 0.49 82-2.66 78.53-5.81 78.48-11.33L78.48-11.33 78.48-35.55 83.12-35.55 83.12-11.47Q83.12-7.62 85.25-5.48 87.37-3.34 91.3-3.34L91.3-3.34Q95.28-3.34 97.39-5.47 99.5-7.59 99.5-11.45L99.5-11.45 99.5-35.55ZM132.36 0L124.65-14.38 116.3-14.38 116.3 0 111.59 0 111.59-35.55 123.35-35.55Q129.36-35.55 132.59-32.81 135.83-30.08 135.83-24.85L135.83-24.85Q135.83-21.53 134.04-19.07 132.24-16.6 129.04-15.38L129.04-15.38 137.39-0.29 137.39 0 132.36 0ZM116.3-31.69L116.3-18.21 123.5-18.21Q126.99-18.21 129.05-20.02 131.12-21.83 131.12-24.85L131.12-24.85Q131.12-28.15 129.15-29.91 127.19-31.67 123.48-31.69L123.48-31.69 116.3-31.69ZM147.11-35.55L147.11-3.83 163.95-3.83 163.95 0 142.39 0 142.39-35.55 147.11-35.55Z" fill="#454545" data-fill-palette-color="primary"></path></g></svg></g></svg></g></svg></g></svg></g><g><svg viewBox="0 0 213.818291122127 213.818291122127" height="213.818291122127" width="213.818291122127"><g><svg></svg></g><g id="icon-0"><svg viewBox="0 0 213.818291122127 213.818291122127" height="213.818291122127" width="213.818291122127"><g><path d="M0 106.909c0-59.044 47.865-106.909 106.909-106.909 59.044 0 106.909 47.865 106.909 106.909 0 59.044-47.865 106.909-106.909 106.909-59.044 0-106.909-47.865-106.909-106.909zM106.909 205.878c54.659 0 98.968-44.31 98.969-98.969 0-54.659-44.31-98.968-98.969-98.968-54.659 0-98.968 44.31-98.968 98.968 0 54.659 44.31 98.968 98.968 98.969z" data-fill-palette-color="accent" fill="#1c1c1c" stroke="transparent"></path></g><g transform="matrix(1,0,0,1,45.56981033052708,45.56981033052708)"><svg viewBox="0 0 122.67867046107283 122.67867046107283" height="122.67867046107283" width="122.67867046107283"><g><svg xmlns="http://www.w3.org/2000/svg" xmlns:xlink="http://www.w3.org/1999/xlink" version="1.1" x="0" y="0" viewBox="5 5 90 90" enable-background="new 0 0 100 100" xml:space="preserve" height="122.67867046107283" width="122.67867046107283" class="icon-s-0" data-fill-palette-color="accent" id="s-0"><g fill="#1c1c1c" data-fill-palette-color="accent"><path d="M51.174 74.296c-3.203 0-5.799 2.598-5.799 5.798 0 3.197 2.597 5.797 5.799 5.797 3.201 0 5.797-2.6 5.797-5.797C56.971 76.894 54.375 74.296 51.174 74.296z" fill="#1c1c1c" data-fill-palette-color="accent"></path><path d="M80 5H20C11.716 5 5 11.716 5 19.999v60.002C5 88.282 11.716 95 20 95h60c8.283 0 15-6.718 15-14.999V19.999C95 11.716 88.283 5 80 5zM51 16h5v3h-5V16zM56 28v3h-5v-3H56zM51 25h-5v-3h5V25zM51 34v3h-5v-3H51zM45 11h5v3h-5V11zM51.174 89.589c-5.108 0-9.291-3.689-10-8.604L43.925 47H48v-7h6v7h4.422l2.752 34.338C60.468 86.255 56.281 89.589 51.174 89.589z" fill="#1c1c1c" data-fill-palette-color="accent"></path></g></svg></g></svg></g></svg></g></svg></g></svg></g><defs></defs></svg><rect width="395.52" height="129.9244083852903" fill="none" stroke="none" visibility="hidden"></rect></g></svg></g></svg>